<svg data-v-5f19e91b="" xmlns="http://www.w3.org/2000/svg" width="393" height="40" viewBox="0 0 393 40"><!----> <!----> <!----> <g data-v-5f19e91b="" id="da1868ab-9621-ae61-d199-b9bf80196e28" fill="black" transform="matrix(3.2068410913621985,0,0,3.2068410913621985,85.8178756079883,-15.582052140671834)"><path d="M7.04 13.96L7.04 13.96L7.03 13.64L7.03 13.64Q6.80 13.66 6.68 13.68L6.68 13.68L6.68 13.68Q6.73 13.73 6.80 13.85L6.80 13.85L6.80 13.85Q6.92 14.01 6.98 14.01L6.98 14.01L6.98 14.01Q7.04 14.01 7.04 13.96ZM7.46 3.92L7.46 3.92L7.42 6.41L7.42 6.41Q7.42 8.96 7.66 12.26L7.66 12.26L7.66 12.26Q7.80 12.28 8.06 12.28L8.06 12.28L8.06 12.28Q8.32 12.28 8.48 12.14L8.48 12.14L8.48 12.14Q8.65 12.01 8.76 11.88L8.76 11.88L8.76 11.88Q8.86 11.75 8.97 11.75L8.97 11.75L8.97 11.75Q9.23 11.75 9.23 12.31L9.23 12.31L9.23 12.31Q9.00 12.63 8.56 12.95L8.56 12.95L8.56 12.95Q8.12 13.27 7.73 13.43L7.73 13.43L7.73 13.43Q7.77 14.22 7.77 14.73L7.77 14.73L7.77 14.73Q7.77 15.23 7.72 15.29L7.72 15.29L7.72 15.29Q7.67 15.34 7.52 15.42L7.52 15.42L7.52 15.42Q7.36 15.50 7.30 15.50L7.30 15.50L7.30 15.50Q7.24 15.50 7.22 15.48L7.22 15.48L7.22 15.48Q7.20 15.46 6.94 15.09L6.94 15.09L6.94 15.09Q6.31 14.14 5.96 13.68L5.96 13.68L5.96 13.68Q4.98 13.58 4.05 12.96L4.05 12.96L4.05 12.96Q4.06 13.33 4.06 13.93L4.06 13.93L4.06 13.93Q4.06 16.39 2.65 16.39L2.65 16.39L2.65 16.39Q2.11 16.39 1.46 15.79L1.46 15.79L1.46 15.79Q0.80 15.19 0.41 14.63L0.41 14.63L0.41 14.63Q0.01 14.07 0.01 14.01L0.01 14.01L0.01 14.01Q0.01 13.85 0.15 13.72L0.15 13.72L0.15 13.72Q1.33 12.78 1.43 12.78L1.43 12.78L1.43 12.78Q1.48 12.78 1.75 13.18L1.75 13.18L1.75 13.18Q2.02 13.58 2.40 13.98L2.40 13.98L2.40 13.98Q2.79 14.38 3.14 14.38L3.14 14.38L3.14 14.38Q3.42 14.38 3.42 13.43L3.42 13.43L3.42 13.43Q3.42 13.02 3.36 12.46L3.36 12.46L3.36 12.46Q2.52 11.73 1.96 10.83L1.96 10.83L1.96 10.83Q1.40 9.93 1.40 9.56L1.40 9.56L1.40 9.56Q1.40 9.20 1.64 8.89L1.64 8.89L1.64 8.89Q1.88 8.58 2.03 8.58L2.03 8.58L2.03 8.58Q2.18 8.58 2.29 8.63L2.29 8.63L2.29 8.63Q2.39 8.68 2.48 8.75L2.48 8.75L2.48 8.75Q2.58 8.82 2.80 8.99L2.80 8.99L2.80 8.99Q3.02 9.17 3.23 9.32L3.23 9.32L3.23 9.25L3.23 9.25Q3.22 8.88 3.15 7.46L3.15 7.46L3.15 7.46Q3.08 6.05 3.08 4.38L3.08 4.38L3.08 4.38Q3.08 2.72 3.19 2.32L3.19 2.32L3.19 2.32Q3.19 2.23 3.51 1.97L3.51 1.97L3.51 1.97Q3.82 1.72 3.93 1.72L3.93 1.72L3.93 1.72Q4.05 1.72 4.05 1.89L4.05 1.89L4.05 1.89Q4.05 1.90 4.00 2.25L4.00 2.25L4.00 2.25Q3.86 3.72 3.86 5.55L3.86 5.55L3.86 5.55Q3.86 7.38 3.96 10.02L3.96 10.02L3.96 10.02Q4.45 10.53 4.78 10.94L4.78 10.94L4.78 10.94Q5.11 11.35 5.13 11.37L5.13 11.37L5.13 11.37Q5.15 11.38 5.19 11.42L5.19 11.42L5.19 11.42Q5.24 11.45 5.30 11.50L5.30 11.50L5.30 11.50Q5.36 11.55 5.45 11.61L5.45 11.61L5.45 11.61Q5.54 11.66 5.66 11.72L5.66 11.72L5.66 11.72Q5.77 11.79 5.91 11.86L5.91 11.86L5.91 11.86Q6.05 11.93 6.22 11.98L6.22 11.98L6.22 11.98Q6.58 12.11 6.99 12.19L6.99 12.19L6.78 4.07L6.78 4.07Q6.78 3.88 7.18 3.65L7.18 3.65L7.18 3.65Q7.29 3.58 7.35 3.58L7.35 3.58L7.35 3.58Q7.46 3.58 7.46 3.92ZM15.99 12.77L15.99 12.77L15.99 12.77Q15.71 13.27 14.93 13.92L14.93 13.92L14.93 13.92Q14.15 14.57 13.57 14.57L13.57 14.57L13.57 14.57Q12.46 14.57 12.40 13.22L12.40 13.22L12.40 13.22Q12.40 13.09 12.35 13.09L12.35 13.09L12.35 13.09Q12.32 13.09 12.06 13.43L12.06 13.43L12.06 13.43Q11.80 13.76 11.35 14.10L11.35 14.10L11.35 14.10Q10.89 14.45 10.41 14.45L10.41 14.45L10.41 14.45Q9.93 14.45 9.64 14.15L9.64 14.15L9.64 14.15Q9.35 13.86 9.35 13.36L9.35 13.36L9.35 13.36Q9.35 12.87 9.65 12.05L9.65 12.05L9.65 12.05Q9.94 11.24 10.22 11.24L10.22 11.24L10.22 11.24Q10.36 11.26 10.45 11.38L10.45 11.38L10.45 11.38Q10.54 11.51 10.55 11.66L10.55 11.66L10.55 11.66Q10.56 11.82 10.61 12.04L10.61 12.04L10.61 12.04Q10.67 12.26 10.92 12.54L10.92 12.54L10.92 12.54Q11.17 12.81 11.58 12.81L11.58 12.81L11.58 12.81Q12.28 12.81 12.73 11.61L12.73 11.61L12.73 11.61Q12.73 11.59 12.75 11.53L12.75 11.53L12.75 11.53Q12.78 11.47 12.80 11.43L12.80 11.43L12.80 11.43Q12.81 11.40 12.84 11.33L12.84 11.33L12.84 11.33Q12.87 11.27 12.89 11.24L12.89 11.24L12.89 11.24Q13.09 11.09 13.22 11.24L13.22 11.24L13.22 11.24Q13.30 11.35 13.31 11.65L13.31 11.65L13.31 11.65Q13.31 12.10 13.70 12.52L13.70 12.52L13.70 12.52Q14.08 12.95 14.70 12.95L14.70 12.95L14.70 12.95Q15.32 12.95 15.68 12.59L15.68 12.59L15.68 12.59Q15.82 12.42 15.96 12.42L15.96 12.42L15.96 12.42Q16.06 12.42 16.06 12.53L16.06 12.53L16.06 12.53Q16.06 12.64 15.99 12.77ZM15.62 12.92L15.62 12.92L15.62 12.92Q15.62 12.70 16.06 12.19L16.06 12.19L16.06 12.19Q16.49 11.68 16.77 11.68L16.77 11.68L16.77 11.68Q17.04 11.68 17.17 11.89L17.17 11.89L17.17 11.89Q17.30 12.10 17.33 12.35L17.33 12.35L17.33 12.35Q17.36 12.60 17.49 12.81L17.49 12.81L17.49 12.81Q17.63 13.02 17.89 13.02L17.89 13.02L17.89 13.02Q18.14 13.02 18.35 12.79L18.35 12.79L18.35 12.79Q18.55 12.56 18.68 12.27L18.68 12.27L18.68 12.27Q18.80 11.98 19.01 11.75L19.01 11.75L19.01 11.75Q19.22 11.52 19.43 11.52L19.43 11.52L19.43 11.52Q19.63 11.52 19.71 11.69L19.71 11.69L19.71 11.69Q20.58 13.55 21.48 13.55L21.48 13.55L21.48 13.55Q21.62 13.55 21.73 13.51L21.73 13.51L21.73 13.51Q21.84 13.47 21.90 13.47L21.90 13.47L21.90 13.47Q22.06 13.47 22.06 13.73L22.06 13.73L22.06 13.73Q22.06 14.21 21.57 14.59L21.57 14.59L21.57 14.59Q21.07 14.97 20.55 14.97L20.55 14.97L20.55 14.97Q20.03 14.97 19.68 14.63L19.68 14.63L19.68 14.63Q19.32 14.29 19.19 13.94L19.19 13.94L19.19 13.94Q19.05 13.58 18.99 13.24L18.99 13.24L18.99 13.24Q18.93 12.91 18.86 12.91L18.86 12.91L18.86 12.91Q18.75 12.91 18.42 13.35L18.42 13.35L18.42 13.35Q18.09 13.79 17.68 14.24L17.68 14.24L17.68 14.24Q17.26 14.69 16.94 14.69L16.94 14.69L16.94 14.69Q16.60 14.64 16.41 14.36L16.41 14.36L16.41 14.36Q16.21 14.07 16.16 13.76L16.16 13.76L16.16 13.76Q16.03 12.92 15.62 12.92ZM24.75 15.48L24.75 15.48Q24.32 16.13 24.19 16.63L24.19 16.63L24.19 16.63Q24.07 17.14 24.07 17.84L24.07 17.84L24.07 17.84Q24.07 18.54 24.44 18.58L24.44 18.58L24.44 18.58Q24.77 18.58 24.77 16.59L24.77 16.59L24.77 16.59Q24.77 15.90 24.75 15.48L24.75 15.48ZM24.75 14.99L24.75 14.99L24.75 14.99Q24.72 14.55 24.72 13.62L24.72 13.62L24.72 13.62Q24.70 13.62 24.52 13.80L24.52 13.80L24.52 13.80Q24.35 13.97 24.13 14.17L24.13 14.17L24.13 14.17Q23.91 14.38 23.58 14.55L23.58 14.55L23.58 14.55Q23.25 14.73 22.82 14.73L22.82 14.73L22.82 14.73Q22.39 14.73 22.11 14.46L22.11 14.46L22.11 14.46Q21.84 14.20 21.84 13.75L21.84 13.75L21.84 13.75Q21.84 12.78 22.79 11.75L22.79 11.75L22.79 11.75Q23.73 10.72 24.85 10.72L24.85 10.72L24.85 10.72Q25.20 10.72 25.42 10.88L25.42 10.88L25.42 10.88Q25.63 11.05 25.63 11.30L25.63 11.30L25.63 11.30Q25.63 11.52 25.47 11.72L25.47 11.72L25.47 11.72Q25.17 12.05 24.72 12.05L24.72 12.05L24.72 12.05Q24.56 12.05 24.56 11.96L24.56 11.96L24.56 11.96Q24.56 11.90 24.59 11.83L24.59 11.83L24.59 11.83Q24.63 11.76 24.63 11.65L24.63 11.65L24.63 11.65Q24.63 11.37 24.36 11.37L24.36 11.37L24.36 11.37Q23.93 11.37 23.63 11.75L23.63 11.75L23.63 11.75Q23.34 12.12 23.34 12.49L23.34 12.49L23.34 12.49Q23.34 12.85 23.51 13.03L23.51 13.03L23.51 13.03Q23.69 13.20 23.91 13.20L23.91 13.20L23.91 13.20Q24.14 13.20 24.43 12.99L24.43 12.99L24.43 12.99Q24.72 12.78 24.81 12.52L24.81 12.52L24.81 12.52Q24.91 12.15 25.24 12.15L25.24 12.15L25.24 12.15Q25.37 12.15 25.37 12.34L25.37 12.34L25.37 12.34Q25.37 12.53 25.28 12.86L25.28 12.86L25.28 12.86Q25.19 13.19 25.15 13.45L25.15 13.45L25.15 13.45Q25.12 13.71 25.12 14.55L25.12 14.55L25.12 14.55Q25.97 13.54 26.67 12.89L26.67 12.89L26.67 12.89Q26.82 12.74 26.98 12.74L26.98 12.74L26.98 12.74Q27.13 12.74 27.13 12.84L27.13 12.84L27.13 12.84Q27.13 12.95 26.98 13.09L26.98 13.09L26.98 13.09Q25.76 14.20 25.13 14.98L25.13 14.98L25.13 14.98Q25.16 15.99 25.16 16.62L25.16 16.62L25.16 16.62Q25.16 18.34 24.90 19.38L24.90 19.38L24.90 19.38Q24.64 20.43 23.91 20.43L23.91 20.43L23.91 20.43Q23.45 20.43 23.20 19.98L23.20 19.98L23.20 19.98Q22.95 19.54 22.95 18.79L22.95 18.79L22.95 18.79Q22.95 17.26 24.75 14.99ZM29.83 12.33L29.83 12.33L29.78 12.73L29.78 12.73Q29.78 12.98 30.00 13.25L30.00 13.25L30.00 13.25Q30.21 13.52 30.51 13.52L30.51 13.52L30.51 13.52Q30.73 13.52 30.87 13.43L30.87 13.43L30.87 13.43Q31.18 13.22 31.26 13.14L31.26 13.14L31.26 13.14Q31.33 13.06 31.51 13.06L31.51 13.06L31.51 13.06Q31.68 13.06 31.68 13.19L31.68 13.19L31.68 13.19Q31.68 13.33 31.02 14.07L31.02 14.07L31.02 14.07Q30.81 14.31 30.41 14.57L30.41 14.57L30.41 14.57Q30.00 14.84 29.69 14.84L29.69 14.84L29.69 14.84Q29.37 14.84 29.21 14.73L29.21 14.73L29.21 14.73Q29.05 14.63 28.98 14.41L28.98 14.41L28.98 14.41Q28.90 14.10 28.90 13.65L28.90 13.65L28.90 13.65Q28.90 13.59 28.83 13.59L28.83 13.59L28.83 13.59Q28.76 13.59 28.50 13.87L28.50 13.87L28.50 13.87Q27.72 14.69 27.24 14.69L27.24 14.69L27.24 14.69Q26.75 14.69 26.50 14.43L26.50 14.43L26.50 14.43Q26.24 14.18 26.24 13.79L26.24 13.79L26.24 13.79Q26.24 13.10 26.60 12.48L26.60 12.48L26.60 12.48Q26.96 11.86 27.47 11.48L27.47 11.48L27.47 11.48Q28.59 10.65 29.20 10.65L29.20 10.65L29.20 10.65Q30.13 10.68 30.13 11.31L30.13 11.31L30.13 11.31Q30.13 11.54 29.93 11.75L29.93 11.75L29.93 11.75Q29.74 11.97 29.57 11.97L29.57 11.97L29.57 11.97Q29.40 11.97 29.11 11.68L29.11 11.68L29.11 11.68Q28.81 11.38 28.46 11.38L28.46 11.38L28.46 11.38Q28.11 11.38 27.89 11.67L27.89 11.67L27.89 11.67Q27.66 11.96 27.66 12.40L27.66 12.40L27.66 12.40Q27.66 13.13 28.43 13.13L28.43 13.13L28.43 13.13Q28.74 13.13 28.95 12.98L28.95 12.98L28.95 12.98Q29.15 12.82 29.23 12.64L29.23 12.64L29.23 12.64Q29.47 12.17 29.67 12.17L29.67 12.17L29.67 12.17Q29.83 12.17 29.83 12.33ZM31.40 12.29L31.40 12.29L31.02 12.32L31.02 12.32Q30.77 12.32 30.77 12.19L30.77 12.19L30.77 12.19Q30.77 12.00 31.27 11.45L31.27 11.45L31.27 11.45Q31.77 10.89 32.16 10.89L32.16 10.89L32.16 10.89Q32.33 10.89 32.46 10.99L32.46 10.99L32.46 10.99Q32.59 11.09 32.61 11.23L32.61 11.23L32.68 11.86L32.68 11.86Q32.72 11.91 32.76 11.91L32.76 11.91L32.76 11.91Q32.80 11.91 32.98 11.69L32.98 11.69L32.98 11.69Q33.57 11.00 34.03 11.00L34.03 11.00L34.03 11.00Q34.22 11.00 34.33 11.06L34.33 11.06L34.33 11.06Q34.44 11.12 34.59 11.28L34.59 11.28L34.59 11.28Q34.73 11.44 34.75 11.45L34.75 11.45L34.75 11.45Q34.85 11.41 34.94 11.41L34.94 11.41L34.94 11.41Q35.10 11.41 35.10 11.60L35.10 11.60L35.10 11.60Q35.10 11.79 34.55 12.30L34.55 12.30L34.55 12.30Q34.01 12.81 33.74 12.81L33.74 12.81L33.74 12.81Q33.47 12.81 33.29 12.57L33.29 12.57L33.29 12.57Q33.11 12.33 33.03 12.33L33.03 12.33L33.03 12.33Q32.70 12.33 32.70 12.67L32.70 12.67L32.70 12.67Q32.70 12.92 32.94 13.52L32.94 13.52L32.94 13.52Q33.17 14.13 33.17 14.24L33.17 14.24L33.17 14.24Q33.17 14.52 32.88 14.68L32.88 14.68L32.88 14.68Q32.59 14.84 32.25 14.84L32.25 14.84L32.25 14.84Q31.91 14.84 31.70 14.73L31.70 14.73L31.70 14.73Q31.49 14.62 31.49 14.42L31.49 14.42L31.88 12.73L31.88 12.73Q31.88 12.29 31.40 12.29ZM38.42 18.33L38.42 18.33L38.42 18.33Q38.75 18.33 38.75 15.55L38.75 15.55L38.75 15.55Q38.75 14.97 38.74 14.69L38.74 14.69L38.74 14.69Q37.86 15.88 37.86 16.83L37.86 16.83L37.86 16.83Q37.86 17.37 37.99 17.85L37.99 17.85L37.99 17.85Q38.12 18.33 38.42 18.33ZM36.20 11.06L36.20 11.06L36.15 11.62L36.15 11.62Q36.15 12.22 36.55 12.63L36.55 12.63L36.55 12.63Q36.95 13.05 37.52 13.06L37.52 13.06L37.52 13.06Q37.87 13.05 38.17 12.86L38.17 12.86L38.17 12.86Q38.47 12.67 38.60 12.50L38.60 12.50L38.71 12.32L38.71 12.32Q38.72 11.84 38.85 11.52L38.85 11.52L38.85 11.52Q39.05 10.98 39.31 10.98L39.31 10.98L39.35 10.98L39.35 10.98Q39.51 11.03 39.51 11.42L39.51 11.42L39.51 11.42Q39.51 11.59 39.19 12.08L39.19 12.08L39.07 12.26L39.07 12.26Q39.07 13.34 39.09 13.86L39.09 13.86L39.09 13.86Q39.90 13.09 40.29 12.60L40.29 12.60L40.29 12.60Q40.47 12.46 40.58 12.46L40.58 12.46L40.58 12.46Q40.68 12.46 40.68 12.56L40.68 12.56L40.68 12.56Q40.68 12.67 40.50 12.82L40.50 12.82L40.50 12.82Q40.08 13.16 39.10 14.24L39.10 14.24L39.14 16.38L39.14 16.38Q39.14 18.12 38.91 19.01L38.91 19.01L38.91 19.01Q38.67 19.91 38.01 19.91L38.01 19.91L38.01 19.91Q37.48 19.91 37.13 19.36L37.13 19.36L37.13 19.36Q36.78 18.82 36.78 18.17L36.78 18.17L36.78 18.17Q36.78 16.94 37.29 16.04L37.29 16.04L37.29 16.04Q37.80 15.13 38.74 14.21L38.74 14.21L38.74 14.21Q38.71 13.20 38.71 13.10L38.71 13.10L38.71 13.10Q38.71 13.01 38.63 13.01L38.63 13.01L38.63 13.01Q38.56 13.01 38.46 13.15L38.46 13.15L38.46 13.15Q37.97 13.66 37.74 13.87L37.74 13.87L37.74 13.87Q37.14 14.46 36.53 14.46L36.53 14.46L36.53 14.46Q35.92 14.46 35.57 14.06L35.57 14.06L35.57 14.06Q35.21 13.65 35.21 12.90L35.21 12.90L35.21 12.90Q35.21 12.15 35.50 11.53L35.50 11.53L35.50 11.53Q35.78 10.91 36.04 10.91L36.04 10.91L36.04 10.91Q36.20 10.91 36.20 11.06ZM45.92 12.05L45.93 11.70L45.92 9.94L45.92 9.94Q45.92 8.09 46.00 7.15L46.00 7.15L46.00 7.15Q46.09 6.22 46.09 6.16L46.09 6.16L46.09 6.16Q46.24 5.67 46.68 5.67L46.68 5.67L46.68 5.67Q46.77 5.67 46.77 5.78L46.77 5.78L46.77 5.78Q46.77 5.80 46.75 6.01L46.75 6.01L46.75 6.01Q46.49 7.97 46.49 11.19L46.49 11.19L46.49 11.19Q46.49 11.58 46.61 12.98L46.61 12.98L46.61 12.98Q46.72 14.38 46.70 14.61L46.70 14.61L46.70 14.61Q46.69 14.84 46.48 14.84L46.48 14.84L46.48 14.84Q46.03 14.80 45.49 14.14L45.49 14.14L45.49 14.14Q44.95 13.48 44.49 12.47L44.49 12.47L44.49 12.47Q44.03 11.47 43.72 10.12L43.72 10.12L43.72 10.12Q43.41 8.78 43.41 7.49L43.41 7.49L43.41 7.49Q43.41 6.20 43.95 4.80L43.95 4.80L43.95 4.80Q44.25 4.02 44.68 3.37L44.68 3.37L44.68 3.37Q45.11 2.73 45.81 2.30L45.81 2.30L45.81 2.30Q46.51 1.88 47.35 1.88L47.35 1.88L47.35 1.88Q48.90 1.88 49.88 3.23L49.88 3.23L49.88 3.23Q50.85 4.58 50.85 6.30L50.85 6.30L50.85 6.30Q50.85 8.32 49.55 9.34L49.55 9.34L49.55 9.34Q48.85 9.90 47.85 10.01L47.85 10.01L47.85 10.01Q47.75 10.04 47.75 10.12L47.75 10.12L47.75 10.12Q47.75 10.40 48.28 11.14L48.28 11.14L48.28 11.14Q48.80 11.87 49.69 12.59L49.69 12.59L49.69 12.59Q50.58 13.31 51.38 13.38L51.38 13.38L51.38 13.38Q51.90 13.38 52.28 12.98L52.28 12.98L52.28 12.98Q52.42 12.81 52.50 12.81L52.50 12.81L52.50 12.81Q52.75 12.96 52.75 13.13L52.75 13.13L52.75 13.13Q52.75 13.31 52.40 13.68L52.40 13.68L52.40 13.68Q52.05 14.06 51.73 14.29L51.73 14.29L51.73 14.29Q50.99 14.84 50.06 14.84L50.06 14.84L50.06 14.84Q49.13 14.84 48.46 14.28L48.46 14.28L48.46 14.28Q47.80 13.72 47.45 12.81L47.45 12.81L47.45 12.81Q46.76 11.03 46.76 9.06L46.76 9.06L46.76 9.06Q46.76 8.85 46.91 8.85L46.91 8.85L46.91 8.85Q46.97 8.86 47.11 8.97L47.11 8.97L47.11 8.97Q47.52 9.30 48.06 9.35L48.06 9.35L48.06 9.35Q48.69 9.35 49.02 8.81L49.02 8.81L49.02 8.81Q49.35 8.27 49.35 7.38L49.35 7.38L49.35 7.38Q49.35 6.50 49.03 5.56L49.03 5.56L49.03 5.56Q48.71 4.63 47.98 3.93L47.98 3.93L47.98 3.93Q47.25 3.23 46.30 3.23L46.30 3.23L46.30 3.23Q45.56 3.23 44.81 4.34L44.81 4.34L44.81 4.34Q44.06 5.45 44.06 6.99L44.06 6.99L44.06 6.99Q44.06 8.16 44.52 9.60L44.52 9.60L44.52 9.60Q44.98 11.03 45.86 12.17L45.86 12.17L45.88 12.17L45.88 12.17Q45.92 12.17 45.92 12.05L45.92 12.05ZM53.87 12.52L53.87 12.52Q54.11 12.43 54.36 11.98L54.36 11.98L54.36 11.98Q54.60 11.52 54.60 11.23L54.60 11.23L54.60 11.23Q54.60 10.93 54.38 10.92L54.38 10.92L54.38 10.92Q54.04 10.92 53.90 11.22L53.90 11.22L53.90 11.22Q53.76 11.52 53.76 11.88L53.76 11.88L53.76 11.88Q53.76 12.24 53.87 12.52L53.87 12.52ZM55.08 13.43L55.08 13.43L55.08 13.43Q55.47 13.43 55.73 13.25L55.73 13.25L55.73 13.25Q55.99 13.08 56.22 12.80L56.22 12.80L56.22 12.80Q56.45 12.52 56.58 12.52L56.58 12.52L56.58 12.52Q56.71 12.52 56.71 12.64L56.71 12.64L56.71 12.64Q56.71 12.73 56.66 12.84L56.66 12.84L56.66 12.84Q56.20 13.58 55.51 14.15L55.51 14.15L55.51 14.15Q54.82 14.71 54.05 14.71L54.05 14.71L54.05 14.71Q53.28 14.71 52.94 14.34L52.94 14.34L52.94 14.34Q52.60 13.97 52.60 13.36L52.60 13.36L52.60 13.36Q52.60 12.29 53.40 11.18L53.40 11.18L53.40 11.18Q54.19 10.07 55.05 10.07L55.05 10.07L55.05 10.07Q55.50 10.07 55.50 10.43L55.50 10.43L55.50 10.43Q55.50 10.92 55.19 11.45L55.19 11.45L55.19 11.45Q54.88 11.97 54.05 12.87L54.05 12.87L54.05 12.87Q54.43 13.43 55.08 13.43ZM59.74 13.23L59.74 13.23L59.74 13.23Q59.85 13.23 60.10 13.06L60.10 13.06L60.10 13.06Q60.35 12.89 60.51 12.73L60.51 12.73L60.66 12.57L60.66 12.57Q60.76 12.47 60.86 12.47L60.86 12.47L60.86 12.47Q61.03 12.47 61.03 12.67L61.03 12.67L61.03 12.67Q61.03 12.74 61.01 12.78L61.01 12.78L61.01 12.78Q60.65 13.66 59.67 14.20L59.67 14.20L59.67 14.20Q58.69 14.74 57.92 14.74L57.92 14.74L57.92 14.74Q56.42 14.74 56.42 13.57L56.42 13.57L56.42 13.57Q56.42 13.41 56.78 13.08L56.78 13.08L56.78 13.08Q57.15 12.74 57.32 12.66L57.32 12.66L57.32 12.66Q57.43 12.57 57.49 12.57L57.49 12.57L57.49 12.57Q57.55 12.57 57.60 12.63L57.60 12.63L57.60 12.63Q57.64 12.68 57.69 12.77L57.69 12.77L57.69 12.77Q57.75 12.85 57.79 12.91L57.79 12.91L57.79 12.91Q57.83 12.96 57.90 13.06L57.90 13.06L57.90 13.06Q57.97 13.16 58.05 13.22L58.05 13.22L58.05 13.22Q58.13 13.29 58.23 13.34L58.23 13.34L58.23 13.34Q58.41 13.48 58.61 13.48L58.61 13.48L58.61 13.48Q58.81 13.48 58.81 13.24L58.81 13.24L58.81 13.24Q58.81 12.66 58.38 12.23L58.38 12.23L58.38 12.23Q57.95 11.80 57.65 11.80L57.65 11.80L57.65 11.80Q57.58 11.80 57.51 11.89L57.51 11.89L56.99 12.40L56.99 12.40Q56.87 12.53 56.81 12.53L56.81 12.53L56.81 12.53Q56.60 12.53 56.60 12.35L56.60 12.35L56.60 12.35Q58.10 10.51 58.38 10.51L58.38 10.51L58.38 10.51Q58.77 10.51 59.28 11.05L59.28 11.05L59.28 11.05Q59.78 11.58 59.78 12.11L59.78 12.11L59.78 12.11Q59.78 12.61 59.70 12.88L59.70 12.88L59.70 12.88Q59.63 13.15 59.63 13.19L59.63 13.19L59.63 13.19Q59.63 13.23 59.74 13.23ZM58.00 9.83L58.00 9.83L58.00 9.83Q58.00 9.55 58.45 9.41L58.45 9.41L58.45 9.41Q59.14 9.11 60.69 8.50L60.69 8.50L60.69 8.50Q60.97 6.37 61.53 6.37L61.53 6.37L61.53 6.37Q61.89 6.37 61.89 7.53L61.89 7.53L61.89 7.53Q61.89 7.87 61.88 8.04L61.88 8.04L61.88 8.04Q64.01 7.22 64.74 7.04L64.74 7.04L64.74 7.04Q65.46 6.86 65.90 6.86L65.90 6.86L65.90 6.86Q66.56 6.86 66.56 7.34L66.56 7.34L66.56 7.34Q66.56 7.49 66.36 7.59L66.36 7.59L66.36 7.59Q65.49 8.02 65.28 8.02L65.28 8.02L65.28 8.02Q65.24 8.02 65.14 7.96L65.14 7.96L65.14 7.96Q65.04 7.90 64.92 7.90L64.92 7.90L64.92 7.90Q64.79 7.90 64.40 7.99L64.40 7.99L64.40 7.99Q63.60 8.20 61.78 8.81L61.78 8.81L61.78 8.81Q61.61 9.90 61.29 10.37L61.29 10.37L61.29 10.37Q61.35 11.97 61.71 12.53L61.71 12.53L61.71 12.53Q61.88 12.80 62.20 12.99L62.20 12.99L62.20 12.99Q62.51 13.19 62.97 13.19L62.97 13.19L62.97 13.19Q63.43 13.19 63.88 12.77L63.88 12.77L63.88 12.77Q63.97 12.68 64.02 12.68L64.02 12.68L64.02 12.68Q64.13 12.68 64.13 12.87L64.13 12.87L64.13 12.87Q64.13 13.45 63.35 14.05L63.35 14.05L63.35 14.05Q62.57 14.64 61.85 14.64L61.85 14.64L61.85 14.64Q60.44 14.64 60.44 12.35L60.44 12.35L60.44 12.35Q60.44 10.91 60.61 9.24L60.61 9.24L60.61 9.24Q59.44 9.69 58.89 9.97L58.89 9.97L58.89 9.97Q58.34 10.25 58.24 10.25L58.24 10.25L58.24 10.25Q58.14 10.25 58.07 10.11L58.07 10.11L58.07 10.11Q58.00 9.97 58.00 9.83ZM67.33 12.33L67.33 12.33L67.27 12.73L67.27 12.73Q67.27 12.98 67.49 13.25L67.49 13.25L67.49 13.25Q67.70 13.52 68.00 13.52L68.00 13.52L68.00 13.52Q68.22 13.52 68.36 13.43L68.36 13.43L68.36 13.43Q68.67 13.22 68.75 13.14L68.75 13.14L68.75 13.14Q68.82 13.06 69.00 13.06L69.00 13.06L69.00 13.06Q69.17 13.06 69.17 13.19L69.17 13.19L69.17 13.19Q69.17 13.33 68.52 14.07L68.52 14.07L68.52 14.07Q68.31 14.31 67.90 14.57L67.90 14.57L67.90 14.57Q67.49 14.84 67.18 14.84L67.18 14.84L67.18 14.84Q66.86 14.84 66.70 14.73L66.70 14.73L66.70 14.73Q66.54 14.63 66.47 14.41L66.47 14.41L66.47 14.41Q66.39 14.10 66.39 13.65L66.39 13.65L66.39 13.65Q66.39 13.59 66.32 13.59L66.32 13.59L66.32 13.59Q66.25 13.59 66.00 13.87L66.00 13.87L66.00 13.87Q65.21 14.69 64.73 14.69L64.73 14.69L64.73 14.69Q64.25 14.69 63.99 14.43L63.99 14.43L63.99 14.43Q63.73 14.18 63.73 13.79L63.73 13.79L63.73 13.79Q63.73 13.10 64.09 12.48L64.09 12.48L64.09 12.48Q64.46 11.86 64.96 11.48L64.96 11.48L64.96 11.48Q66.08 10.65 66.70 10.65L66.70 10.65L66.70 10.65Q67.62 10.68 67.62 11.31L67.62 11.31L67.62 11.31Q67.62 11.54 67.42 11.75L67.42 11.75L67.42 11.75Q67.23 11.97 67.06 11.97L67.06 11.97L67.06 11.97Q66.89 11.97 66.60 11.68L66.60 11.68L66.60 11.68Q66.30 11.38 65.95 11.38L65.95 11.38L65.95 11.38Q65.60 11.38 65.38 11.67L65.38 11.67L65.38 11.67Q65.16 11.96 65.16 12.40L65.16 12.40L65.16 12.40Q65.16 13.13 65.93 13.13L65.93 13.13L65.93 13.13Q66.23 13.13 66.44 12.98L66.44 12.98L66.44 12.98Q66.64 12.82 66.72 12.64L66.72 12.64L66.72 12.64Q66.96 12.17 67.16 12.17L67.16 12.17L67.16 12.17Q67.33 12.17 67.33 12.33ZM75.50 12.77L75.50 12.77L75.50 12.77Q75.22 13.27 74.45 13.92L74.45 13.92L74.45 13.92Q73.67 14.57 73.08 14.57L73.08 14.57L73.08 14.57Q71.97 14.57 71.92 13.22L71.92 13.22L71.92 13.22Q71.92 13.09 71.86 13.09L71.86 13.09L71.86 13.09Q71.83 13.09 71.58 13.43L71.58 13.43L71.58 13.43Q71.32 13.76 70.86 14.10L70.86 14.10L70.86 14.10Q70.41 14.45 69.92 14.45L69.92 14.45L69.92 14.45Q69.44 14.45 69.15 14.15L69.15 14.15L69.15 14.15Q68.87 13.86 68.87 13.36L68.87 13.36L68.87 13.36Q68.87 12.87 69.16 12.05L69.16 12.05L69.16 12.05Q69.45 11.24 69.73 11.24L69.73 11.24L69.73 11.24Q69.87 11.26 69.97 11.38L69.97 11.38L69.97 11.38Q70.06 11.51 70.06 11.66L70.06 11.66L70.06 11.66Q70.07 11.82 70.13 12.04L70.13 12.04L70.13 12.04Q70.18 12.26 70.43 12.54L70.43 12.54L70.43 12.54Q70.69 12.81 71.09 12.81L71.09 12.81L71.09 12.81Q71.79 12.81 72.24 11.61L72.24 11.61L72.24 11.61Q72.24 11.59 72.27 11.53L72.27 11.53L72.27 11.53Q72.30 11.47 72.31 11.43L72.31 11.43L72.31 11.43Q72.32 11.40 72.35 11.33L72.35 11.33L72.35 11.33Q72.38 11.27 72.41 11.24L72.41 11.24L72.41 11.24Q72.60 11.09 72.73 11.24L72.73 11.24L72.73 11.24Q72.81 11.35 72.83 11.65L72.83 11.65L72.83 11.65Q72.83 12.10 73.21 12.52L73.21 12.52L73.21 12.52Q73.60 12.95 74.21 12.95L74.21 12.95L74.21 12.95Q74.83 12.95 75.19 12.59L75.19 12.59L75.19 12.59Q75.33 12.42 75.47 12.42L75.47 12.42L75.47 12.42Q75.57 12.42 75.57 12.53L75.57 12.53L75.57 12.53Q75.57 12.64 75.50 12.77ZM75.15 12.29L75.15 12.29L74.77 12.32L74.77 12.32Q74.52 12.32 74.52 12.19L74.52 12.19L74.52 12.19Q74.52 12.00 75.02 11.45L75.02 11.45L75.02 11.45Q75.52 10.89 75.91 10.89L75.91 10.89L75.91 10.89Q76.08 10.89 76.21 10.99L76.21 10.99L76.21 10.99Q76.34 11.09 76.36 11.23L76.36 11.23L76.43 11.86L76.43 11.86Q76.47 11.91 76.51 11.91L76.51 11.91L76.51 11.91Q76.55 11.91 76.73 11.69L76.73 11.69L76.73 11.69Q77.32 11.00 77.78 11.00L77.78 11.00L77.78 11.00Q77.97 11.00 78.08 11.06L78.08 11.06L78.08 11.06Q78.19 11.12 78.34 11.28L78.34 11.28L78.34 11.28Q78.48 11.44 78.50 11.45L78.50 11.45L78.50 11.45Q78.60 11.41 78.69 11.41L78.69 11.41L78.69 11.41Q78.85 11.41 78.85 11.60L78.85 11.60L78.85 11.60Q78.85 11.79 78.30 12.30L78.30 12.30L78.30 12.30Q77.76 12.81 77.49 12.81L77.49 12.81L77.49 12.81Q77.22 12.81 77.04 12.57L77.04 12.57L77.04 12.57Q76.86 12.33 76.78 12.33L76.78 12.33L76.78 12.33Q76.45 12.33 76.45 12.67L76.45 12.67L76.45 12.67Q76.45 12.92 76.69 13.52L76.69 13.52L76.69 13.52Q76.92 14.13 76.92 14.24L76.92 14.24L76.92 14.24Q76.92 14.52 76.63 14.68L76.63 14.68L76.63 14.68Q76.34 14.84 76.00 14.84L76.00 14.84L76.00 14.84Q75.66 14.84 75.45 14.73L75.45 14.73L75.45 14.73Q75.24 14.62 75.24 14.42L75.24 14.42L75.63 12.73L75.63 12.73Q75.63 12.29 75.15 12.29ZM81.90 12.33L81.90 12.33L81.84 12.73L81.84 12.73Q81.84 12.98 82.06 13.25L82.06 13.25L82.06 13.25Q82.28 13.52 82.57 13.52L82.57 13.52L82.57 13.52Q82.80 13.52 82.94 13.43L82.94 13.43L82.94 13.43Q83.24 13.22 83.32 13.14L83.32 13.14L83.32 13.14Q83.40 13.06 83.57 13.06L83.57 13.06L83.57 13.06Q83.75 13.06 83.75 13.19L83.75 13.19L83.75 13.19Q83.75 13.33 83.09 14.07L83.09 14.07L83.09 14.07Q82.88 14.31 82.47 14.57L82.47 14.57L82.47 14.57Q82.07 14.84 81.75 14.84L81.75 14.84L81.75 14.84Q81.44 14.84 81.28 14.73L81.28 14.73L81.28 14.73Q81.12 14.63 81.05 14.41L81.05 14.41L81.05 14.41Q80.96 14.10 80.96 13.65L80.96 13.65L80.96 13.65Q80.96 13.59 80.89 13.59L80.89 13.59L80.89 13.59Q80.82 13.59 80.57 13.87L80.57 13.87L80.57 13.87Q79.79 14.69 79.30 14.69L79.30 14.69L79.30 14.69Q78.82 14.69 78.56 14.43L78.56 14.43L78.56 14.43Q78.30 14.18 78.30 13.79L78.30 13.79L78.30 13.79Q78.30 13.10 78.67 12.48L78.67 12.48L78.67 12.48Q79.03 11.86 79.53 11.48L79.53 11.48L79.53 11.48Q80.65 10.65 81.27 10.65L81.27 10.65L81.27 10.65Q82.19 10.68 82.19 11.31L82.19 11.31L82.19 11.31Q82.19 11.54 82.00 11.75L82.00 11.75L82.00 11.75Q81.80 11.97 81.63 11.97L81.63 11.97L81.63 11.97Q81.47 11.97 81.17 11.68L81.17 11.68L81.17 11.68Q80.88 11.38 80.53 11.38L80.53 11.38L80.53 11.38Q80.18 11.38 79.95 11.67L79.95 11.67L79.95 11.67Q79.73 11.96 79.73 12.40L79.73 12.40L79.73 12.40Q79.73 13.13 80.50 13.13L80.50 13.13L80.50 13.13Q80.81 13.13 81.01 12.98L81.01 12.98L81.01 12.98Q81.21 12.82 81.30 12.64L81.30 12.64L81.30 12.64Q81.54 12.17 81.73 12.17L81.73 12.17L81.73 12.17Q81.90 12.17 81.90 12.33ZM83.45 12.92L83.45 12.92L83.45 12.92Q83.45 12.70 83.89 12.19L83.89 12.19L83.89 12.19Q84.32 11.68 84.60 11.68L84.60 11.68L84.60 11.68Q84.87 11.68 85.00 11.89L85.00 11.89L85.00 11.89Q85.13 12.10 85.16 12.35L85.16 12.35L85.16 12.35Q85.19 12.60 85.32 12.81L85.32 12.81L85.32 12.81Q85.46 13.02 85.72 13.02L85.72 13.02L85.72 13.02Q85.97 13.02 86.18 12.79L86.18 12.79L86.18 12.79Q86.38 12.56 86.51 12.27L86.51 12.27L86.51 12.27Q86.63 11.98 86.84 11.75L86.84 11.75L86.84 11.75Q87.05 11.52 87.26 11.52L87.26 11.52L87.26 11.52Q87.46 11.52 87.54 11.69L87.54 11.69L87.54 11.69Q88.41 13.55 89.31 13.55L89.31 13.55L89.31 13.55Q89.45 13.55 89.56 13.51L89.56 13.51L89.56 13.51Q89.67 13.47 89.73 13.47L89.73 13.47L89.73 13.47Q89.89 13.47 89.89 13.73L89.89 13.73L89.89 13.73Q89.89 14.21 89.40 14.59L89.40 14.59L89.40 14.59Q88.90 14.97 88.38 14.97L88.38 14.97L88.38 14.97Q87.86 14.97 87.51 14.63L87.51 14.63L87.51 14.63Q87.15 14.29 87.02 13.94L87.02 13.94L87.02 13.94Q86.88 13.58 86.82 13.24L86.82 13.24L86.82 13.24Q86.76 12.91 86.69 12.91L86.69 12.91L86.69 12.91Q86.58 12.91 86.25 13.35L86.25 13.35L86.25 13.35Q85.92 13.79 85.51 14.24L85.51 14.24L85.51 14.24Q85.09 14.69 84.77 14.69L84.77 14.69L84.77 14.69Q84.43 14.64 84.24 14.36L84.24 14.36L84.24 14.36Q84.04 14.07 83.99 13.76L83.99 13.76L83.99 13.76Q83.86 12.92 83.45 12.92ZM87.14 9.83L87.14 9.83L87.14 9.83Q87.14 9.55 87.58 9.41L87.58 9.41L87.58 9.41Q88.27 9.11 89.82 8.50L89.82 8.50L89.82 8.50Q90.10 6.37 90.66 6.37L90.66 6.37L90.66 6.37Q91.03 6.37 91.03 7.53L91.03 7.53L91.03 7.53Q91.03 7.87 91.01 8.04L91.01 8.04L91.01 8.04Q93.14 7.22 93.87 7.04L93.87 7.04L93.87 7.04Q94.60 6.86 95.03 6.86L95.03 6.86L95.03 6.86Q95.69 6.86 95.69 7.34L95.69 7.34L95.69 7.34Q95.69 7.49 95.49 7.59L95.49 7.59L95.49 7.59Q94.63 8.02 94.42 8.02L94.42 8.02L94.42 8.02Q94.37 8.02 94.28 7.96L94.28 7.96L94.28 7.96Q94.18 7.90 94.05 7.90L94.05 7.90L94.05 7.90Q93.93 7.90 93.53 7.99L93.53 7.99L93.53 7.99Q92.74 8.20 90.92 8.81L90.92 8.81L90.92 8.81Q90.75 9.90 90.43 10.37L90.43 10.37L90.43 10.37Q90.48 11.97 90.85 12.53L90.85 12.53L90.85 12.53Q91.01 12.80 91.33 12.99L91.33 12.99L91.33 12.99Q91.64 13.19 92.11 13.19L92.11 13.19L92.11 13.19Q92.57 13.19 93.02 12.77L93.02 12.77L93.02 12.77Q93.10 12.68 93.16 12.68L93.16 12.68L93.16 12.68Q93.27 12.68 93.27 12.87L93.27 12.87L93.27 12.87Q93.27 13.45 92.48 14.05L92.48 14.05L92.48 14.05Q91.70 14.64 90.99 14.64L90.99 14.64L90.99 14.64Q89.57 14.64 89.57 12.35L89.57 12.35L89.57 12.35Q89.57 10.91 89.74 9.24L89.74 9.24L89.74 9.24Q88.58 9.69 88.03 9.97L88.03 9.97L88.03 9.97Q87.47 10.25 87.37 10.25L87.37 10.25L87.37 10.25Q87.28 10.25 87.21 10.11L87.21 10.11L87.21 10.11Q87.14 9.97 87.14 9.83Z"></path></g> <!----> <g data-v-5f19e91b="" id="2ce81a46-6938-9a24-9143-a9ecdb586897" transform="matrix(0.6655609978569879,0,0,0.6655609978569879,0.24225572648720117,-11.6977659186295)" stroke="none" fill="black"><path d="M31.524 42.103c-.725-2.99-5.178-1.794-5.178-1.794s-4.506.977-3.783 3.966l.154.626s1.181-1.214 4.267-1.962c3.088-.749 4.692-.211 4.692-.211l-.152-.625zM43.246 48.387s-1.529 2.339-5.928 3.394c-4.4 1.056-6.837-.327-6.837-.327l.326 1.332c1.55 6.356 7.876 4.592 7.876 4.592s6.438-1.301 4.887-7.658l-.324-1.333zM46.992 38.353c-.725-2.989-5.179-1.796-5.179-1.796s-4.506.978-3.782 3.968l.152.625s1.181-1.211 4.269-1.96c3.087-.749 4.691-.212 4.691-.212l-.151-.625z"></path><path d="M99.439 55.861s-6.404-.959-8.644-1.602c-2.242-.64 3.034-5.07 0-6.082-2.612-.871-5.481-.457-7.844.254.604-3.11 1.222-6.266 1.593-8.164l.576-2.989-2.655 1.496c-.022.012-.808.435-2.353.877-3.521-.28-9.148-.598-15.406-1.618-4.248-.692-8.105-1.596-11.225-2.375-.878-4.085-2.326-10.845-3.01-14.037l-.643-2.975-1.856 2.419c-.015.018-.57.716-1.816 1.729-3.347 1.125-8.65 3.044-14.806 4.563-5.895 1.456-11.277 2.225-14.785 2.78-1.823-.347-2.764-.769-2.784-.778l-2.785-1.352.812 2.987c1.531 5.641 4.469 16.482 4.629 17.142.08.33.171.652.265.976a11.123 11.123 0 0 0-7.56-.131c-3.038 1.013 2.241 5.443 0 6.083-2.239.641-8.642 1.6-8.642 1.6l5.763 1.922-4.162 3.842 10.244-1.92s4.85-1.152 3.202-4.482c-2.126-4.295 1.617-2.01 3.994-.688 5.446 8.547 15.559 13.227 21.516 11.795l.051-.014h.001c1.184-.291 2.402-.879 3.603-1.708 3.011 7.002 8.588 12.215 13.302 13.013l.052.008h.002c7.543 1.23 20.892-7.569 23.094-20.733.034-.202.339-1.784.762-3.961 2.232-1.079 4.318-1.911 2.471 1.483-2.019 3.708 3.2 4.483 3.2 4.483l10.246 1.921-4.163-3.843 5.761-1.921zm-39.898-7.079l-.1.636c-.482 3.038-5.018 2.205-5.018 2.205s-.214-.031-.541-.106c.239-.863.438-1.744.594-2.64.126.023.24.05.371.071 3.139.499 4.694-.166 4.694-.166zM40.433 64.387l.338 1.365-.372-1.357c-5.538 1.331-18.309-4.898-21.224-16.92-.162-.664-2.723-10.115-3.975-14.733 3.09.712 8.874 1.32 17.326-.729l.234-.058c8.306-2.05 13.101-5.197 15.498-7.228 1.008 4.705 3.075 14.353 3.211 14.918 2.91 12.001-5.533 23.383-11.036 24.742zm25.958 3.759c-.062.38-.217 1.354-.217 1.354s-1.715-2.208-6.184-2.905c-4.469-.7-6.787.876-6.787.876s.144-.905.217-1.354c1.035-6.462 7.482-5.212 7.482-5.212s6.522.779 5.489 7.241zm8.769-16.234c-.482 3.035-5.018 2.206-5.018 2.206s-4.57-.612-4.088-3.651l.102-.635s1.273 1.114 4.411 1.61c3.138.5 4.694-.166 4.694-.166l-.101.636z"></path></g></svg>