<svg data-v-1084b650="" xmlns="http://www.w3.org/2000/svg" viewBox="0 0 300 300"><!----> <linearGradient data-v-1084b650="" gradientTransform="rotate(25)" id="791463f7-ee2a-f8e5-5910-391b84735850" x1="0%" y1="0%" x2="100%" y2="0%"><stop data-v-1084b650="" offset="0%" style="stop-color: rgb(233, 140, 0); stop-opacity: 1;"></stop> <stop data-v-1084b650="" offset="100%" style="stop-color: rgb(143, 91, 254); stop-opacity: 1;"></stop></linearGradient> <rect data-v-1084b650="" fill="url(#791463f7-ee2a-f8e5-5910-391b84735850)" x="0" y="0" width="300px" height="300px" class="logo-background-square"></rect> <!----> <!----> <g data-v-1084b650="" id="12577314-f776-b019-92ca-b6307fa5ea4a" fill="#ffffff" stroke="none" transform="matrix(0.6999999999999997,0,0,0.6999999999999997,45.06402683258061,47.947885894775425)"><svg xmlns="http://www.w3.org/2000/svg" viewBox="0 0 100 100"><path d="M31.524 42.103c-.725-2.99-5.178-1.794-5.178-1.794s-4.506.977-3.783 3.966l.154.626s1.181-1.214 4.267-1.962c3.088-.749 4.692-.211 4.692-.211l-.152-.625zM43.246 48.387s-1.529 2.339-5.928 3.394c-4.4 1.056-6.837-.327-6.837-.327l.326 1.332c1.55 6.356 7.876 4.592 7.876 4.592s6.438-1.301 4.887-7.658l-.324-1.333zM46.992 38.353c-.725-2.989-5.179-1.796-5.179-1.796s-4.506.978-3.782 3.968l.152.625s1.181-1.211 4.269-1.96c3.087-.749 4.691-.212 4.691-.212l-.151-.625z"></path><path d="M99.439 55.861s-6.404-.959-8.644-1.602c-2.242-.64 3.034-5.07 0-6.082-2.612-.871-5.481-.457-7.844.254.604-3.11 1.222-6.266 1.593-8.164l.576-2.989-2.655 1.496c-.022.012-.808.435-2.353.877-3.521-.28-9.148-.598-15.406-1.618-4.248-.692-8.105-1.596-11.225-2.375-.878-4.085-2.326-10.845-3.01-14.037l-.643-2.975-1.856 2.419c-.015.018-.57.716-1.816 1.729-3.347 1.125-8.65 3.044-14.806 4.563-5.895 1.456-11.277 2.225-14.785 2.78-1.823-.347-2.764-.769-2.784-.778l-2.785-1.352.812 2.987c1.531 5.641 4.469 16.482 4.629 17.142.08.33.171.652.265.976a11.123 11.123 0 0 0-7.56-.131c-3.038 1.013 2.241 5.443 0 6.083-2.239.641-8.642 1.6-8.642 1.6l5.763 1.922-4.162 3.842 10.244-1.92s4.85-1.152 3.202-4.482c-2.126-4.295 1.617-2.01 3.994-.688 5.446 8.547 15.559 13.227 21.516 11.795l.051-.014h.001c1.184-.291 2.402-.879 3.603-1.708 3.011 7.002 8.588 12.215 13.302 13.013l.052.008h.002c7.543 1.23 20.892-7.569 23.094-20.733.034-.202.339-1.784.762-3.961 2.232-1.079 4.318-1.911 2.471 1.483-2.019 3.708 3.2 4.483 3.2 4.483l10.246 1.921-4.163-3.843 5.761-1.921zm-39.898-7.079l-.1.636c-.482 3.038-5.018 2.205-5.018 2.205s-.214-.031-.541-.106c.239-.863.438-1.744.594-2.64.126.023.24.05.371.071 3.139.499 4.694-.166 4.694-.166zM40.433 64.387l.338 1.365-.372-1.357c-5.538 1.331-18.309-4.898-21.224-16.92-.162-.664-2.723-10.115-3.975-14.733 3.09.712 8.874 1.32 17.326-.729l.234-.058c8.306-2.05 13.101-5.197 15.498-7.228 1.008 4.705 3.075 14.353 3.211 14.918 2.91 12.001-5.533 23.383-11.036 24.742zm25.958 3.759c-.062.38-.217 1.354-.217 1.354s-1.715-2.208-6.184-2.905c-4.469-.7-6.787.876-6.787.876s.144-.905.217-1.354c1.035-6.462 7.482-5.212 7.482-5.212s6.522.779 5.489 7.241zm8.769-16.234c-.482 3.035-5.018 2.206-5.018 2.206s-4.57-.612-4.088-3.651l.102-.635s1.273 1.114 4.411 1.61c3.138.5 4.694-.166 4.694-.166l-.101.636z"></path></svg></g></svg>